<?xml version="1.0" encoding="UTF-8" standalone="no"?>
<!DOCTYPE svg PUBLIC "-//W3C//DTD SVG 1.1//EN" "http://www.w3.org/Graphics/SVG/1.1/DTD/svg11.dtd">
<svg width="100%" height="100%" viewBox="0 0 1400 1400" version="1.1" xmlns="http://www.w3.org/2000/svg" xmlns:xlink="http://www.w3.org/1999/xlink" xml:space="preserve" xmlns:serif="http://www.serif.com/" style="fill-rule:evenodd;clip-rule:evenodd;stroke-linejoin:round;stroke-miterlimit:2;">
    <g transform="matrix(0.911458,0,0,0.683594,0,0)">
        <rect id="Artboard1" x="0" y="0" width="1536" height="2048" style="fill:none;"/>
        <g>
            <g transform="matrix(1,0,0,1,5.48399,-20.8043)">
                <g transform="matrix(2.52211,0,0,3.36281,76.503,183.757)">
                    <path d="M64.7,125.8L117.9,157.7C125.7,162.4 135.7,159.7 140.1,151.8L217.6,12.1C220.6,6.7 216.7,0 210.5,0C208.9,0 207.3,0.5 205.9,1.4L63.9,98.8C54.3,105.4 54.7,119.7 64.7,125.7L64.7,125.8Z" style="fill:rgb(177,77,142);"/>
                </g>
                <g transform="matrix(2.52211,0,0,3.36281,76.503,183.757)">
                    <path d="M32,171.7L32,295.3C32,303.3 42.4,306.3 46.7,299.7L106.7,207.7C111.7,200.1 109.3,189.9 101.5,185.2L56.2,158C45.6,151.6 32,159.3 32,171.7Z" style="fill:rgb(177,77,142);"/>
                </g>
                <g transform="matrix(2.52211,0,0,3.36281,76.503,183.757)">
                    <path d="M326.4,12.1L404,151.7C408.4,159.6 418.5,162.3 426.2,157.6L479.4,125.7C489.4,119.7 489.8,105.4 480.2,98.8L338.1,1.4C336.7,0.5 335.1,0 333.5,0C327.3,0 323.4,6.7 326.4,12.1Z" style="fill:rgb(177,77,142);"/>
                </g>
                <g transform="matrix(2.52211,0,0,3.36281,76.503,183.757)">
                    <path d="M512,171.7C512,159.3 498.4,151.6 487.8,158L442.5,185.2C434.7,189.9 432.4,200.1 437.3,207.7L497.3,299.7C501.6,306.4 512,303.3 512,295.3L512,171.7Z" style="fill:rgb(177,77,142);"/>
                </g>
                <g transform="matrix(2.52211,0,0,3.36281,76.503,183.757)">
                    <path d="M462.7,417.7L302.1,436.6C294,437.5 288,444.4 288,452.5L288,505.3C288,509 291,512.1 294.8,512.1C295.6,512.1 296.4,512 297.2,511.7L469.9,447.7C476,445.5 480,439.7 480,433.2C480,423.9 471.9,416.7 462.7,417.8L462.7,417.7Z" style="fill:rgb(177,77,142);"/>
                </g>
                <g transform="matrix(2.52211,0,0,3.36281,76.503,183.757)">
                    <path d="M249.2,512C252.9,512 256,509 256,505.2L256,452.6C256,444.5 249.9,437.7 241.9,436.7L81.3,417.7C72.1,416.6 64,423.8 64,433.1C64,439.6 68,445.4 74.1,447.6L246.8,511.6C247.6,511.9 248.4,512 249.2,512Z" style="fill:rgb(177,77,142);"/>
                </g>
                <g transform="matrix(2.52211,0,0,3.36281,76.503,183.757)">
                    <path d="M57.7,382.9L228.6,403.1C236.4,404 242,395.6 238.1,388.8L152.4,238.8C146.5,228.4 131.7,228 125.1,238L46.2,358.2C39.7,368.1 45.9,381.5 57.7,382.9Z" style="fill:rgb(177,77,142);"/>
                </g>
                <g transform="matrix(2.52211,0,0,3.36281,76.503,183.757)">
                    <path d="M497.3,358.1L418.9,238.1C412.4,228.1 397.5,228.5 391.6,238.9L306.2,388.5C302.3,395.3 307.8,403.7 315.7,402.8L485.8,382.8C497.6,381.4 503.8,368.1 497.3,358.2L497.3,358.1Z" style="fill:rgb(177,77,142);"/>
                </g>
                <g transform="matrix(2.52211,0,0,3.36281,76.503,183.757)">
                    <path d="M190.4,176L353.6,176C365.8,176 373.5,162.9 367.6,152.2L287.6,8.2C284.8,3.1 279.4,0 273.6,0L270.4,0C264.6,0 259.2,3.2 256.4,8.2L176.4,152.2C170.5,162.9 178.2,176 190.4,176Z" style="fill:rgb(177,77,142);"/>
                </g>
                <g transform="matrix(2.5585,0,0,3.41133,64.2452,157.411)">
                    <clipPath id="_clip1">
                        <rect x="175.334" y="195.049" width="189.606" height="186.826"/>
                    </clipPath>
                    <g clip-path="url(#_clip1)">
                        <path d="M512,171.7C512,159.3 498.4,151.6 487.8,158L442.5,185.2C434.7,189.9 432.4,200.1 437.3,207.7L497.3,299.7C501.6,306.4 512,303.3 512,295.3L512,171.7ZM462.7,417.7L302.1,436.6C294,437.5 288,444.4 288,452.5L288,505.3C288,509 291,512.1 294.8,512.1C295.6,512.1 296.4,512 297.2,511.7L469.9,447.7C476,445.5 480,439.7 480,433.2C480,423.9 471.9,416.7 462.7,417.8L462.7,417.7ZM249.2,512C252.9,512 256,509 256,505.2L256,452.6C256,444.5 249.9,437.7 241.9,436.7L81.3,417.7C72.1,416.6 64,423.8 64,433.1C64,439.6 68,445.4 74.1,447.6L246.8,511.6C247.6,511.9 248.4,512 249.2,512ZM280.4,369.1L358.8,231.9C364.9,221.2 357.2,208 344.9,208L199.1,208C186.8,208 179.1,221.3 185.2,231.9L263.6,369.1C267.3,375.5 276.6,375.5 280.3,369.1L280.4,369.1Z" style="fill:rgb(177,77,142);fill-rule:nonzero;"/>
                    </g>
                </g>
            </g>
        </g>
    </g>
</svg>
