<?xml version="1.0" encoding="UTF-8" standalone="no"?>
<!DOCTYPE svg PUBLIC "-//W3C//DTD SVG 1.1//EN" "http://www.w3.org/Graphics/SVG/1.1/DTD/svg11.dtd">
<svg width="100%" height="100%" viewBox="0 0 1400 1400" version="1.1" xmlns="http://www.w3.org/2000/svg" xmlns:xlink="http://www.w3.org/1999/xlink" xml:space="preserve" xmlns:serif="http://www.serif.com/" style="fill-rule:evenodd;clip-rule:evenodd;stroke-linejoin:round;stroke-miterlimit:2;">
    <g transform="matrix(0.911458,0,0,0.683594,0,0)">
        <rect id="Artboard1" x="0" y="0" width="1536" height="2048" style="fill:none;"/>
        <clipPath id="_clip1">
            <rect id="Artboard11" serif:id="Artboard1" x="0" y="0" width="1536" height="2048"/>
        </clipPath>
        <g clip-path="url(#_clip1)">
            <g transform="matrix(1.0823,0,0,1.45815,-0.884097,1.53975)">
                <g id="Layer1">
                    <rect x="0.817" y="-1.056" width="1419.2" height="1404.52"/>
                </g>
            </g>
            <g transform="matrix(1,0,0,1,5.48399,-20.8043)">
                <g transform="matrix(2.52211,0,0,3.36281,76.503,183.757)">
                    <path d="M64.7,125.8L117.9,157.7C125.7,162.4 135.7,159.7 140.1,151.8L217.6,12.1C220.6,6.7 216.7,0 210.5,0C208.9,0 207.3,0.5 205.9,1.4L63.9,98.8C54.3,105.4 54.7,119.7 64.7,125.7L64.7,125.8Z" style="fill:rgb(255,212,43);"/>
                </g>
                <g transform="matrix(2.52211,0,0,3.36281,76.503,183.757)">
                    <path d="M32,171.7L32,295.3C32,303.3 42.4,306.3 46.7,299.7L106.7,207.7C111.7,200.1 109.3,189.9 101.5,185.2L56.2,158C45.6,151.6 32,159.3 32,171.7Z" style="fill:rgb(255,212,43);"/>
                </g>
                <g transform="matrix(2.52211,0,0,3.36281,76.503,183.757)">
                    <path d="M326.4,12.1L404,151.7C408.4,159.6 418.5,162.3 426.2,157.6L479.4,125.7C489.4,119.7 489.8,105.4 480.2,98.8L338.1,1.4C336.7,0.5 335.1,0 333.5,0C327.3,0 323.4,6.7 326.4,12.1Z" style="fill:rgb(255,212,43);"/>
                </g>
                <g transform="matrix(2.52211,0,0,3.36281,76.503,183.757)">
                    <path d="M512,171.7C512,159.3 498.4,151.6 487.8,158L442.5,185.2C434.7,189.9 432.4,200.1 437.3,207.7L497.3,299.7C501.6,306.4 512,303.3 512,295.3L512,171.7Z" style="fill:rgb(255,212,43);"/>
                </g>
                <g transform="matrix(2.52211,0,0,3.36281,76.503,183.757)">
                    <path d="M462.7,417.7L302.1,436.6C294,437.5 288,444.4 288,452.5L288,505.3C288,509 291,512.1 294.8,512.1C295.6,512.1 296.4,512 297.2,511.7L469.9,447.7C476,445.5 480,439.7 480,433.2C480,423.9 471.9,416.7 462.7,417.8L462.7,417.7Z" style="fill:rgb(255,212,43);"/>
                </g>
                <g transform="matrix(2.52211,0,0,3.36281,76.503,183.757)">
                    <path d="M249.2,512C252.9,512 256,509 256,505.2L256,452.6C256,444.5 249.9,437.7 241.9,436.7L81.3,417.7C72.1,416.6 64,423.8 64,433.1C64,439.6 68,445.4 74.1,447.6L246.8,511.6C247.6,511.9 248.4,512 249.2,512Z" style="fill:rgb(255,212,43);"/>
                </g>
                <g transform="matrix(2.52211,0,0,3.36281,76.503,183.757)">
                    <path d="M57.7,382.9L228.6,403.1C236.4,404 242,395.6 238.1,388.8L152.4,238.8C146.5,228.4 131.7,228 125.1,238L46.2,358.2C39.7,368.1 45.9,381.5 57.7,382.9Z" style="fill:rgb(255,212,43);"/>
                </g>
                <g transform="matrix(2.52211,0,0,3.36281,76.503,183.757)">
                    <path d="M497.3,358.1L418.9,238.1C412.4,228.1 397.5,228.5 391.6,238.9L306.2,388.5C302.3,395.3 307.8,403.7 315.7,402.8L485.8,382.8C497.6,381.4 503.8,368.1 497.3,358.2L497.3,358.1Z" style="fill:rgb(255,212,43);"/>
                </g>
                <g transform="matrix(1.67853,0,0,2.32009,543.004,800.189)">
                    <path d="M75.554,40.23C71.151,55.193 70.05,60.019 70.05,65.328C70.05,71.989 71.752,76.719 75.454,80.001L77.956,82.318L83.56,77.395C86.662,74.692 91.365,71.217 94.067,69.769L99.071,67.066L99.071,61.081C99.071,53.552 102.273,44.96 106.676,40.713C109.378,38.107 110.579,37.624 114.381,37.624C119.585,37.624 121.486,39.072 117.283,39.844C112.08,40.906 109.078,50.752 112.58,55.579C116.083,60.502 128.591,62.432 135.696,59.247C140.199,57.123 142.101,54.42 142.101,49.883C142.101,44.671 139.599,40.617 136.097,39.844C131.794,39.072 133.495,37.624 138.798,37.624C142.601,37.624 143.802,38.107 146.504,40.713C151.007,45.057 154.109,53.552 154.109,61.371C154.109,66.39 154.409,67.742 155.91,68.224C159.013,69.286 166.518,74.499 170.821,78.457L175.124,82.414L177.726,80.001C181.428,76.719 183.129,72.086 183.129,65.328C183.129,60.019 182.029,55.193 177.626,40.23C176.825,37.721 176.425,35.693 176.625,35.693C176.825,35.693 180.227,39.458 184.13,44.092C192.636,54.324 195.138,60.212 195.138,69.769C195.038,79.518 193.937,83.476 189.034,90.04L184.831,95.832L187.633,103.458C192.636,117.359 192.236,133.479 186.432,147.476L183.93,153.461L188.934,158.77C192.436,162.438 194.137,165.141 194.638,167.844C195.638,173.539 193.637,181.841 189.434,189.371L185.631,196.128L185.131,183.579C184.731,172.864 184.33,170.547 182.529,168.327C178.726,163.404 177.526,163.211 173.423,167.168L169.82,170.74L169.12,183.579C168.319,197.479 167.418,200.375 161.214,207.904L158.112,211.669L158.112,195.452C158.112,180.49 158.012,179.331 156.411,179.814C155.41,180.2 151.207,181.648 147.104,183.096C140.3,185.509 138.298,185.799 126.59,185.799C114.882,185.799 112.88,185.509 106.076,183.096C101.973,181.648 97.77,180.2 96.869,179.814C95.168,179.331 95.068,180.49 95.068,195.452L95.068,211.669L91.966,207.904C85.661,200.279 84.761,197.479 84.06,183.579L83.46,170.74L79.757,167.168C75.654,163.211 74.454,163.404 70.651,168.327C68.85,170.547 68.449,172.864 68.049,183.579L67.549,196.128L63.846,189.467C59.443,181.552 57.542,174.215 58.542,168.327C59.043,165.045 60.344,162.921 64.246,158.77L69.25,153.461L67.148,148.731C60.644,134.058 60.444,115.524 66.548,100.369L68.349,95.929L63.746,89.558C58.743,82.414 57.442,77.298 58.242,66.197C58.743,58.571 61.745,52.683 70.151,42.837C73.553,38.879 76.455,35.693 76.655,35.693C76.855,35.693 76.355,37.721 75.554,40.23ZM114.882,75.85C89.264,81.835 72.152,105.871 75.854,130.68C79.157,152.399 96.669,169.485 119.285,172.864C146.804,177.015 173.323,157.805 177.325,130.776C182.329,96.701 149.406,67.742 114.882,75.85Z" style="fill:rgb(255,212,43);"/>
                </g>
                <g transform="matrix(1.67853,0,0,2.32009,543.004,800.189)">
                    <path d="M136.097,102.396C145.803,106.644 150.507,113.69 150.507,124.019C150.507,131.356 149.006,135.313 144.202,140.236C139.599,145.063 134.395,147.09 126.59,147.09C116.383,147.09 109.278,142.939 104.475,134.155C101.773,129.232 101.973,118.517 104.775,113.401C109.078,105.485 117.684,100.369 126.59,100.369C129.492,100.369 133.495,101.238 136.097,102.396Z" style="fill:rgb(255,212,43);"/>
                </g>
                <g transform="matrix(2.52211,0,0,3.36281,76.503,183.757)">
                    <path d="M190.4,176L353.6,176C365.8,176 373.5,162.9 367.6,152.2L287.6,8.2C284.8,3.1 279.4,0 273.6,0L270.4,0C264.6,0 259.2,3.2 256.4,8.2L176.4,152.2C170.5,162.9 178.2,176 190.4,176Z" style="fill:rgb(255,212,43);"/>
                </g>
            </g>
        </g>
    </g>
</svg>
